<?xml version="1.0" standalone="no"?><!DOCTYPE svg PUBLIC "-//W3C//DTD SVG 1.1//EN" "http://www.w3.org/Graphics/SVG/1.1/DTD/svg11.dtd"><svg t="1592362673087" class="icon" viewBox="0 0 1024 1024" version="1.1" xmlns="http://www.w3.org/2000/svg" p-id="1493" xmlns:xlink="http://www.w3.org/1999/xlink" width="200" height="200"><defs><style type="text/css"></style></defs><path d="M793.863 815.883c-4.846-4.514-8.568-7.592-11.45-9.692 27.307-79.44 38.688-171.68 34.778-281.688 3.21-100.959-22.325-212.59-23.396-217.208-5.946-29.701-11.835-48.734-13.206-53.003-2.319-24.777 3.389-36.828 4.895-39.516 10.125-8.952 14.888-17.852 14.16-26.469-0.844-9.998-8.665-14.962-9.554-15.495a7.91 7.91 0 0 0-0.534-0.293c-3.592-1.797-7.661-2.709-12.095-2.709-18.996 0-41.319 17.056-49.901 24.26-59.314-15.365-132.232-23.154-216.824-23.154-112.531 0-211.27 14.081-230.132 16.938-21.208-14.666-36.961-21.803-48.095-21.803-8.09 0-12.632 3.642-15.017 6.697-5.602 7.173-4.265 16.941-2.97 22.125 0.049 0.199 0.107 0.396 0.171 0.59 9.016 27.052 15.311 37.228 18.692 42.694 0.673 1.087 1.431 2.313 1.624 2.792-0.002 0.25-0.069 1.002-0.568 3.015-22.8 82.686-33.421 171.844-33.421 280.556 0 0.9 0.152 91.291 13.32 203.206 0.021 0.181 0.049 0.361 0.083 0.54 7.637 40.717 13.371 69.993 15.589 81.232-25.396 18.654-29.655 30.431-29.072 36.807-0.479 5.194 1.356 8.632 3.067 10.65 2.957 3.49 7.525 5.26 13.579 5.26 12.311-0.001 30.764-7.497 38.204-10.756 85.359 30.325 172.054 45.699 257.729 45.699 79.966-0.001 144.311-13.664 184.209-25.126 32.859-9.44 54.738-18.828 63.888-23.068 14.552 11.424 26.561 13.947 34.32 13.947 8.21 0 13.15-2.714 14.057-3.258a8.04 8.04 0 0 0 1.544-1.205c2.502-2.505 6.119-8.111 2.22-17.523-3.632-8.763-12.822-18.454-19.894-25.042z m-25.828 17.624a8.003 8.003 0 0 0-8.934-1.089c-0.945 0.487-96.254 48.739-245.584 48.74-84.845 0-170.762-15.425-255.365-45.846a8.007 8.007 0 0 0-6.088 0.277c-6.342 2.955-24.9 10.624-34.48 10.625-0.205 0-0.393-0.004-0.564-0.011a8.228 8.228 0 0 0-0.047-0.916c0.404-1.432 3.629-9.742 26.476-25.736a8 8 0 0 0 3.257-8.121c-0.066-0.331-6.708-33.611-16.507-85.845-13.022-110.811-13.179-200.176-13.179-201.065 0-107.28 10.446-195.109 32.873-276.402l0.05-0.189c2.182-8.738 0.924-11.929-2.95-18.191-3.026-4.892-8.647-13.978-17.016-39.024-0.999-4.207-0.538-7.27 0.125-8.12 0.258-0.331 1.203-0.544 2.407-0.544 4.539 0 15.971 2.694 41.532 20.735a7.998 7.998 0 0 0 5.896 1.361c1.061-0.172 107.475-17.231 230.799-17.231 85.165 0 158.109 7.972 216.806 23.695a8.006 8.006 0 0 0 7.448-1.805c7.053-6.396 28.43-22.996 42.471-22.996 1.74 0 3.212 0.265 4.48 0.807 0.517 0.422 1.676 1.541 1.767 3.144 0.07 1.226-0.414 5.833-9.57 13.679-0.443 0.38-0.845 0.809-1.195 1.276-1.209 1.613-11.712 16.775-8.191 52.015 0.059 0.589 0.183 1.171 0.37 1.732 0.064 0.195 6.571 19.903 13.01 52.095 0.018 0.088 0.037 0.176 0.058 0.263 0.263 1.117 26.25 112.869 23.001 213.439-0.006 0.181-0.005 0.362 0.001 0.544 3.968 110.933-7.813 203.237-36.014 282.188a8.002 8.002 0 0 0 5.191 10.341c2.318 1.367 9.612 7.08 16.669 14.215 7.375 7.456 10.589 12.472 11.799 15.149-4.992 0.772-15.67 0.05-30.802-13.189z" p-id="1494" fill="#d81e06"></path><path d="M314.113 245.25c-9.495 1.313-14.795 2.168-15.017 2.204a8 8 0 0 0 2.554 15.794c0.053-0.008 5.364-0.864 14.656-2.15a8 8 0 0 0 6.828-9.021c-0.606-4.376-4.645-7.439-9.021-6.827zM424.875 234.281c-9.112 0.561-18.453 1.226-27.762 1.977a8 8 0 0 0 1.284 15.949c9.209-0.742 18.449-1.4 27.46-1.955a8 8 0 0 0-0.982-15.971zM480.527 232.002c-9.081 0.172-18.45 0.456-27.846 0.844a8 8 0 1 0 0.66 15.986 1233.61 1233.61 0 0 1 27.489-0.833 8 8 0 0 0 7.847-8.15c-0.084-4.417-3.745-7.946-8.15-7.847zM536.301 232.376a983.224 983.224 0 0 0-27.9-0.56h-0.05a8 8 0 0 0-0.048 16c9.33 0.057 18.563 0.242 27.443 0.55a8 8 0 0 0 8.272-7.718 7.999 7.999 0 0 0-7.717-8.272zM592.109 236.247a705.229 705.229 0 0 0-27.896-2.446c-4.422-0.309-8.226 3.029-8.526 7.437a7.999 7.999 0 0 0 7.437 8.526 688.626 688.626 0 0 1 27.261 2.39 8 8 0 0 0 1.724-15.907zM369.398 238.745c-9.255 0.915-18.564 1.92-27.667 2.988a8 8 0 0 0 0.922 15.946c0.311 0 0.625-0.019 0.941-0.056a1518.625 1518.625 0 0 1 27.378-2.956 8.001 8.001 0 0 0 7.174-8.749c-0.435-4.396-4.35-7.612-8.748-7.173zM647.613 245.155c-8.751-1.946-18.063-3.704-27.68-5.226a8 8 0 1 0-2.5 15.803c9.291 1.47 18.276 3.166 26.707 5.041a8.004 8.004 0 0 0 9.546-6.074 7.998 7.998 0 0 0-6.073-9.544zM670.253 267.641a262.904 262.904 0 0 1 13.772 4.664c0.917 0.34 1.856 0.501 2.78 0.501a8 8 0 0 0 2.782-15.503 278.543 278.543 0 0 0-14.612-4.949 7.999 7.999 0 0 0-10.005 5.282 8.002 8.002 0 0 0 5.283 10.005zM685.529 809.105c-0.053 0.009-5.363 0.865-14.654 2.149a8 8 0 0 0 2.191 15.85c9.496-1.313 14.797-2.169 15.019-2.204a8 8 0 0 0 6.619-9.175c-0.705-4.362-4.823-7.32-9.175-6.62zM424.056 822.592a687.432 687.432 0 0 1-27.26-2.391c-4.39-0.48-8.339 2.697-8.816 7.09s2.697 8.34 7.09 8.816a702.422 702.422 0 0 0 27.897 2.447 8 8 0 0 0 1.089-15.962zM369.747 816.622c-9.293-1.471-18.28-3.167-26.709-5.04a8 8 0 0 0-3.471 15.619c8.749 1.944 18.062 3.702 27.679 5.224a8.002 8.002 0 0 0 9.152-6.65 8 8 0 0 0-6.651-9.153zM588.782 820.149c-9.207 0.742-18.445 1.4-27.46 1.955a8 8 0 0 0-7.492 8.478 8 8 0 0 0 8.477 7.493c9.114-0.562 18.454-1.227 27.761-1.977a8.001 8.001 0 0 0-1.286-15.949zM643.587 814.73a1511.043 1511.043 0 0 1-27.378 2.956 8 8 0 0 0 1.572 15.922c9.247-0.913 18.556-1.918 27.669-2.987a8 8 0 0 0 7.014-8.877 7.996 7.996 0 0 0-8.877-7.014zM478.877 824.538a960.528 960.528 0 0 1-27.443-0.551c-4.385-0.114-8.119 3.302-8.273 7.717a8 8 0 0 0 7.717 8.273c9.045 0.314 18.433 0.503 27.902 0.561h0.049a8 8 0 0 0 0.048-16zM533.84 823.522c-9.283 0.384-18.532 0.663-27.488 0.832a8.001 8.001 0 0 0 0.148 15.999l0.154-0.001c9.075-0.172 18.444-0.455 27.847-0.844a8 8 0 0 0 7.663-8.323c-0.183-4.414-3.906-7.862-8.324-7.663zM316.929 804.715a263.974 263.974 0 0 1-13.773-4.664 8 8 0 0 0-5.562 15.002 279.293 279.293 0 0 0 14.613 4.949 8.003 8.003 0 0 0 10.005-5.283 8 8 0 0 0-5.283-10.004z" p-id="1495" fill="#d81e06"></path></svg>