<?xml version="1.0" standalone="no"?><!DOCTYPE svg PUBLIC "-//W3C//DTD SVG 1.1//EN" "http://www.w3.org/Graphics/SVG/1.1/DTD/svg11.dtd"><svg t="1591105832892" class="icon" viewBox="0 0 1024 1024" version="1.1" xmlns="http://www.w3.org/2000/svg" p-id="2482" xmlns:xlink="http://www.w3.org/1999/xlink" width="400" height="400"><defs><style type="text/css"></style></defs><path d="M794.77 432.79c0 141.78-105.19 259-241.79 277.86 12.63-85.79 35.69-153.83 67.59-198.72 0 0 0.28-0.39 0.44-0.62 5.06-7.07 10.41-13.65 15.9-19.55 28.36-30.5 61.27-44.7 103.56-44.7 17.1 0 32.55-7.19 43.48-18.7 3.89-4.1 10.81-1.41 10.82 4.24v0.19z" fill="#B4E7B4" p-id="2483"></path><path d="M740.47 367.06c-64.26 0-118.81 23.62-162.14 70.21-0.89 0.96-1.77 1.93-2.66 2.91-29.24-56.02-101.66-171.47-201.78-171.47-11.05 0-20 8.95-20 20s8.95 20 20 20c28.81 0 74.11 14.86 126.33 85.65 23.95 32.46 40.82 65.4 48.37 81.25-19.11 29.3-35.25 64.42-48.18 104.96-5.64 17.7-10.7 36.47-15.14 56.21-25.96-38.52-64.33-58.84-111.38-58.84-11.05 0-20 8.95-20 20s8.95 20 20 20c34.71 0 61.71 14.89 80.23 44.26 12.09 19.16 16.96 38.88 18.39 45.75-1.59 11.46-3.01 23.15-4.25 35.09-10.67 102.75-4.81 166.53-4.56 170.04 0.76 10.52 9.54 18.55 19.93 18.55 0.49 0 0.98-0.02 1.47-0.05 11.02-0.8 19.3-10.38 18.5-21.39-0.23-3.1-19.95-274.67 84.36-421.44 0.09-0.13 0.19-0.26 0.28-0.39 6.04-8.46 12.49-16.44 19.38-23.85 35.96-38.66 79.42-57.46 132.85-57.46 11.05 0 20-8.95 20-20s-8.95-19.99-20-19.99z" fill="#004039" p-id="2484"></path><path d="M390.14 733.7C331 709.71 280.58 669.11 244.33 616.28c-37.1-54.07-56.71-117.45-56.71-183.29 0-80.59 29.75-157.86 83.78-217.57 7.41-8.19 6.78-20.84-1.41-28.25s-20.84-6.78-28.25 1.41c-60.69 67.08-94.12 153.87-94.12 244.4 0 73.96 22.04 145.16 63.73 205.92 40.7 59.32 97.32 104.91 163.75 131.86 2.46 1 5.01 1.47 7.51 1.47 7.9 0 15.39-4.71 18.54-12.49 4.15-10.22-0.78-21.88-11.01-26.04zM312.47 172.28c4.01 0 8.06-1.21 11.58-3.71 1.77-1.26 3.57-2.52 5.37-3.74 9.12-6.23 11.47-18.67 5.25-27.79-6.23-9.13-18.67-11.47-27.79-5.25-2.01 1.37-4.04 2.79-6.02 4.2-9 6.41-11.1 18.89-4.69 27.89 3.89 5.48 10.05 8.4 16.3 8.4zM847.74 291.15c-18.35-43.39-44.62-82.36-78.08-115.82-33.46-33.46-72.42-59.73-115.82-78.08C608.9 78.24 561.18 68.61 512 68.61c-46.55 0-91.9 8.66-134.79 25.75-10.26 4.09-15.27 15.72-11.18 25.98s15.72 15.26 25.98 11.18c38.16-15.2 78.53-22.91 119.98-22.91 86.64 0 168.1 33.74 229.37 95.01 61.27 61.27 95.01 142.73 95.01 229.37 0 66-19.7 129.51-56.96 183.66-36.42 52.92-87.04 93.51-146.39 117.4-10.25 4.12-15.21 15.77-11.09 26.02 3.14 7.8 10.64 12.54 18.56 12.54 2.48 0 5.01-0.47 7.46-1.45 66.67-26.83 123.52-72.41 164.41-131.83 41.88-60.85 64.01-132.2 64.01-206.33 0.01-49.19-9.63-96.92-28.63-141.85z" fill="#004039" p-id="2485"></path></svg>