<svg t="1591015452041" class="icon" viewBox="0 0 1024 1024" version="1.1" xmlns="http://www.w3.org/2000/svg" p-id="4799" width="400" height="400"><path d="M896 128H128a32 32 0 0 0-32 32v576a32 32 0 0 0 32 32h288v-64H160V192h704v512H608c-8.832 0-16.832 3.584-22.656 9.376l-159.968 160 45.248 45.248L621.248 768H896a32 32 0 0 0 32-32V160a32 32 0 0 0-32-32" fill="#181818" p-id="4800"></path><path d="M560 448a48 48 0 1 0-95.968-0.032A48 48 0 0 0 560 448m-320 0a48 48 0 1 0 95.968 0.032A48 48 0 0 0 240 448m544 0a48 48 0 1 0-95.968-0.032A48 48 0 0 0 784 448" fill="#f1c597" p-id="4801" data-spm-anchor-id="a313x.7781069.0.i9" class="selected"></path></svg>