<?xml version="1.0" standalone="no"?><!DOCTYPE svg PUBLIC "-//W3C//DTD SVG 1.1//EN" "http://www.w3.org/Graphics/SVG/1.1/DTD/svg11.dtd"><svg t="1591189311287" class="icon" viewBox="0 0 1024 1024" version="1.1" xmlns="http://www.w3.org/2000/svg" p-id="4933" xmlns:xlink="http://www.w3.org/1999/xlink" width="400" height="400"><defs><style type="text/css"></style></defs><path d="M782.5 449.8m-120.2 0a120.2 120.2 0 1 0 240.4 0 120.2 120.2 0 1 0-240.4 0Z" fill="#f1c597" p-id="4934" data-spm-anchor-id="a313x.7781069.0.i3" class="selected"></path><path d="M751.9 612.6H137.2c-44.5 0-81-36.5-81-81V339.7c0-44.5 36.4-81 81-81h614.7c44.5 0 81 36.4 81 81v191.9c0 44.5-36.5 81-81 81z" fill="#f1c597" p-id="4935" data-spm-anchor-id="a313x.7781069.0.i1" class="selected"></path><path d="M152.139 485.613l63.564-36.7 206.55 357.745-63.564 36.7z" fill="#f1c597" p-id="4936" data-spm-anchor-id="a313x.7781069.0.i2" class="selected"></path><path d="M546.6 258.7v353.6l285.7 144.9V142.4z" fill="#ff9800" p-id="4937" data-spm-anchor-id="a313x.7781069.0.i0" class=""></path></svg>