<?xml version="1.0" standalone="no"?><!DOCTYPE svg PUBLIC "-//W3C//DTD SVG 1.1//EN" "http://www.w3.org/Graphics/SVG/1.1/DTD/svg11.dtd"><svg t="1590934243901" class="icon" viewBox="0 0 1024 1024" version="1.1" xmlns="http://www.w3.org/2000/svg" p-id="6667" xmlns:xlink="http://www.w3.org/1999/xlink" width="400" height="400"><defs><style type="text/css"></style></defs><path d="M235.168 160.032l98.176 417.504 439.904-64.672 50.368-352.832z" fill="#ff9800" p-id="6668" data-spm-anchor-id="a313x.7781069.0.i15" class="selected"></path><path d="M752.256 799.872a48.096 48.096 0 1 0 0.032 96.16 48.096 48.096 0 0 0-0.032-96.16z m-480 0a48.096 48.096 0 1 0 0.032 96.16 48.096 48.096 0 0 0-0.032-96.16z m616.416-564.8a31.936 31.936 0 0 0-24.192-11.04H195.648L178.88 152.704a32.064 32.064 0 0 0-31.2-24.672H64v32h83.68l116.384 494.528-32.064 67.168a32 32 0 0 0 28.736 46.336h539.488v-32H260.64l27.776-58.176 536.288-78.848a32 32 0 0 0 27.008-27.168l44.48-311.328a31.936 31.936 0 0 0-7.52-25.472zM819.52 567.328L294.56 644.544 203.168 256.032H864l-44.48 311.296z m-120.192-251.872l-22.656-22.624-180.992 180.992-67.872-67.872-22.624 22.624 90.496 90.496 203.648-203.616z" fill="#413A4D" p-id="6669"></path></svg>