<?xml version="1.0" standalone="no"?><!DOCTYPE svg PUBLIC "-//W3C//DTD SVG 1.1//EN" "http://www.w3.org/Graphics/SVG/1.1/DTD/svg11.dtd"><svg t="1591015167972" class="icon" viewBox="0 0 1024 1024" version="1.1" xmlns="http://www.w3.org/2000/svg" p-id="2024" xmlns:xlink="http://www.w3.org/1999/xlink" width="400" height="400"><defs><style type="text/css"></style></defs><path d="M516.6 895.7l-10-5.5c-3.2-1.7-78.6-43.3-155.2-98.2-108.6-77.9-161.2-140-160.7-189.9 1.2-119.1 3.6-363.3 3.6-363.3l0.1-9.6 7.6-5.9c1.3-1 31.2-24.3 84.6-47.4 48.7-21.1 127.3-46.2 225.5-46.2h1.2c106.4 0.2 183.5 25.5 229.4 46.7 50.8 23.4 76.2 47.1 77.3 48.1l6 5.7 0.3 8.2c0.1 2.2 7.2 220 7.2 366.3v1l-0.1 1c-4.6 47-56.9 107.4-160.1 184.7-73.1 54.8-143.8 96.8-146.8 98.6l-9.9 5.7zM234.2 249.4c-0.5 47.4-2.4 248.5-3.5 353.1-0.1 12.3 7 34.7 41.8 71.3 24.4 25.7 58.8 54.6 102.2 85.7 58.7 42.1 118.1 76.9 141.1 90 22-13.5 77.8-48.5 133.6-90.4 41.5-31.1 74.8-59.8 99.1-85.2 34.2-35.9 43.3-57.9 44.8-70.3 0-128.8-5.5-312.6-6.9-355-9.5-7.4-30.3-22.2-62.5-36.8-42.1-19.1-112.8-41.9-210.8-42.1H512c-148.9 0-250.3 61-277.8 79.7z" fill="#3C80EF" p-id="2025"></path><path d="M273.3 293.1s91.7-71.9 239.6-71.6c159.4 0.3 234.9 71.6 234.9 71.6s5.7 174.7 5.7 293.1C745.9 664.4 515.4 801 515.4 801S269.7 666 270.5 584.3c0.9-95.5 2.8-291.2 2.8-291.2z" fill="#FFC973" p-id="2026"></path><path d="M747.8 293.1s-75.4-71.3-234.9-71.6h-1v577.7c2.2 1.2 3.3 1.9 3.3 1.9s230.6-136.5 238.2-214.8c0.2-118.5-5.6-293.2-5.6-293.2z" fill="#FFC55F" p-id="2027"></path><path d="M532.6 553.7h-84.1c-4.6 0-8.3-3.7-8.3-8.3v-156c0-4.6 3.7-8.3 8.3-8.3h84.1c4.6 0 8.3 3.7 8.3 8.3v40.9c0 4.6 3.7 8.3 8.3 8.3h40.9c4.6 0 8.3 3.7 8.3 8.3v26.5c0 4.6 3.7 8.3 8.3 8.3h12.1c4.6 0 8.3-3.7 8.3-8.3v-51.8c0-2.2-0.9-4.4-2.5-5.9l-62-61.1c-1.6-1.5-3.7-2.4-5.9-2.4h-137c-4.6 0-8.3 3.7-8.3 8.3v213.6c0 4.6 3.7 8.3 8.3 8.3h112.9c4.6 0 8.3-3.7 8.3-8.3V562c0-4.5-3.7-8.3-8.3-8.3z" fill="#FFFFFF" p-id="2028"></path><path d="M575.3 539h0.5c4.6 0 8.3 3.7 8.3 8.3v26.8c0 4.6 3.7 8.3 8.3 8.3h12.1c4.6 0 8.3-3.7 8.3-8.3v-26.6c0-4.6 3.8-8.4 8.4-8.3 7.5 0 11.2-9 5.9-14.3L604 502c-3.3-3.2-8.5-3.2-11.8 0l-22.8 22.8c-5.2 5.2-1.5 14.2 5.9 14.2z" fill="#FFFFFF" p-id="2029"></path></svg>