<?xml version="1.0" standalone="no"?><!DOCTYPE svg PUBLIC "-//W3C//DTD SVG 1.1//EN" "http://www.w3.org/Graphics/SVG/1.1/DTD/svg11.dtd"><svg t="1591019579328" class="icon" viewBox="0 0 1024 1024" version="1.1" xmlns="http://www.w3.org/2000/svg" p-id="7085" xmlns:xlink="http://www.w3.org/1999/xlink" width="400" height="400"><defs><style type="text/css"></style></defs><path d="M899.79392 952.32H124.21632a26.96704 26.96704 0 0 1 0-53.92896h775.5776a26.96704 26.96704 0 0 1 0 53.92896z m11.13088-842.24a33.792 33.792 0 0 0-15.0528-27.74016 33.16736 33.16736 0 0 0-30.8736-3.1232l-141.6704 57.52832a26.9568 26.9568 0 0 0 20.21888 49.97632l67.5072-27.40736C672.68608 377.6768 435.4048 511.9232 183.24992 511.9232c-10.752 0-21.65248-0.24064-32.384-0.71168A26.96704 26.96704 0 0 0 148.48 565.08416c11.52 0.512 23.21408 0.76288 34.75456 0.76288a781.824 781.824 0 0 0 405.18656-113.46944 824.5248 824.5248 0 0 0 269.63968-266.61376l0.9216 71.39328a26.94144 26.94144 0 0 0 26.91072 26.624h0.37888a26.94656 26.94656 0 0 0 26.56768-27.31008z" fill="#2966C1" p-id="7086"></path><path d="M289.90464 844.16H200.46848a43.69408 43.69408 0 0 1-43.09504-44.17024v-136.09984a36.40832 36.40832 0 0 1 7.51616-25.82016 29.76768 29.76768 0 0 1 21.504-10.6752h1.14176a821.248 821.248 0 0 0 97.47968-5.84704 42.41408 42.41408 0 0 1 33.2544 10.60352 44.70272 44.70272 0 0 1 14.72512 33.28v134.58944a43.69408 43.69408 0 0 1-43.08992 44.13952z m-78.88384-54.20032h68.33152v-113.25952c-22.70208 2.4064-45.568 3.92704-68.3264 4.54656v108.71296z m342.92736 54.20032H464.512a43.69408 43.69408 0 0 1-43.08992-44.17024V625.664a44.032 44.032 0 0 1 29.5424-41.87648 824.4992 824.4992 0 0 0 85.0432-34.42688 41.984 41.984 0 0 1 40.86272 2.7136 44.15488 44.15488 0 0 1 20.1728 37.376v210.51392a43.69408 43.69408 0 0 1-43.09504 44.19584z m-78.87872-54.20032h68.32128v-184.448a878.34112 878.34112 0 0 1-68.32128 27.23328v157.21472z m342.91712 54.20032H728.576a43.69408 43.69408 0 0 1-43.09504-44.17024V480.68096a44.21632 44.21632 0 0 1 16.66048-34.816A874.20928 874.20928 0 0 0 787.37408 368.128a42.13248 42.13248 0 0 1 46.592-9.99424 43.99104 43.99104 0 0 1 27.136 41.0368v400.83968a43.69408 43.69408 0 0 1-43.11552 44.14976z m-78.848-54.20032H807.424V424.50432a927.19104 927.19104 0 0 1-68.32128 60.89216v304.5632z" fill="#FD9A16" p-id="7087"></path></svg>