<?xml version="1.0" standalone="no"?><!DOCTYPE svg PUBLIC "-//W3C//DTD SVG 1.1//EN" "http://www.w3.org/Graphics/SVG/1.1/DTD/svg11.dtd"><svg t="1590934449721" class="icon" viewBox="0 0 1024 1024" version="1.1" xmlns="http://www.w3.org/2000/svg" p-id="10885" xmlns:xlink="http://www.w3.org/1999/xlink" width="400" height="400"><defs><style type="text/css"></style></defs><path d="M386.816 887.712c-141.248-15.616-183.008-55.168-191.872-65.856 3.744-156.224 113.44-311.616 319.872-311.616 120.384 0 207.552 52.992 260.384 128h73.696c-42.016-76.32-109.824-140-202.4-171.136a223.616 223.616 0 0 0 92.384-180.864c0-123.488-100.512-223.968-224-223.968s-224 100.48-224 223.968a223.68 223.68 0 0 0 92.448 180.864C218.592 522.528 130.88 680.096 130.88 830.176c0 3.744 0.672 7.392 1.952 10.944 6.048 16.64 45.12 89.12 254.048 110.752l-0.064-64.16z m-32-601.472a160.16 160.16 0 0 1 160-159.968c88.256 0 160 71.744 160 159.968a160.16 160.16 0 0 1-160 160.032c-88.192 0-160-71.776-160-160.032" fill="#ff9800" p-id="10886"></path><path d="M512 286.24m-192 0a192 192 0 1 0 384 0 192 192 0 1 0-384 0Z" fill="#ff9800" p-id="10887" data-spm-anchor-id="a313x.7781069.0.i27" class="selected"></path><path d="M512 510.24c-123.52 0-224-100.48-224-224s100.48-224 224-224c123.488 0 224 100.48 224 224s-100.512 224-224 224z m0-384c-88.224 0-160 71.776-160 160s71.776 160 160 160 160-71.776 160-160-71.776-160-160-160z" fill="#515151" p-id="10888" data-spm-anchor-id="a313x.7781069.0.i26" class=""></path><path d="M512 478.272c-236.736 0-352 196.864-352 351.936 0 0 35.008 96.064 352 96.064" fill="#ff9800" p-id="10889" data-spm-anchor-id="a313x.7781069.0.i28" class=""></path><path d="M512 958.24c-323.04 0-374.944-97.568-382.048-117.088A32 32 0 0 1 128 830.176c0-159.392 119.136-383.936 384-383.936a32 32 0 1 1 0 64c-216.192 0-315.872 179.488-319.872 311.68 11.2 13.44 73.568 72.32 319.872 72.32a32 32 0 1 1 0 64z" fill="#515151" p-id="10890" data-spm-anchor-id="a313x.7781069.0.i24" class=""></path><path d="M512 478.272c236.736 0 352 196.864 352 351.936 0 0-35.008 96.064-352 96.064" fill="#ff9800" p-id="10891" data-spm-anchor-id="a313x.7781069.0.i29" class=""></path><path d="M512 958.24a32 32 0 1 1 0-64c242.848 0 306.912-57.248 319.84-72.896-4.256-132.128-103.968-311.072-319.84-311.072a32 32 0 0 1 0-64c264.864 0 384 224.512 384 383.936 0 3.744-0.672 7.424-1.952 10.976-7.104 19.488-59.008 117.056-382.048 117.056z" fill="#515151" p-id="10892" data-spm-anchor-id="a313x.7781069.0.i23" class=""></path><path d="M712.384 700.224a31.936 31.936 0 0 1-25.472-12.608 199.328 199.328 0 0 0-90.816-67.392 32 32 0 1 1 22.048-60.064 262.016 262.016 0 0 1 119.616 88.672 32 32 0 0 1-25.376 51.392z" fill="#f1c597" p-id="10893" data-spm-anchor-id="a313x.7781069.0.i25" class=""></path></svg>