<?xml version="1.0" standalone="no"?><!DOCTYPE svg PUBLIC "-//W3C//DTD SVG 1.1//EN" "http://www.w3.org/Graphics/SVG/1.1/DTD/svg11.dtd"><svg t="1592363839529" class="icon" viewBox="0 0 1024 1024" version="1.1" xmlns="http://www.w3.org/2000/svg" p-id="2333" xmlns:xlink="http://www.w3.org/1999/xlink" width="200" height="200"><defs><style type="text/css"></style></defs><path d="M750.475466 58.816115c-9.786019-5.15801-21.886043-1.406003-27.038053 8.368016-5.15801 9.778019-1.410003 21.882043 8.368016 27.038053 155.540304 82.01216 252.166493 242.094473 252.166493 417.776816 0 260.246508-211.726414 471.970922-471.970922 471.970922S40.030078 772.247508 40.030078 511.999 251.754492 40.030078 511.999 40.030078c11.056022 0 20.014039-8.962018 20.014039-20.014039S523.055022 0 511.999 0C229.680449 0 0 229.682449 0 511.999s229.680449 511.999 511.999 511.999 511.999-229.680449 511.999-511.999C1024.002 321.424628 919.191795 147.774289 750.475466 58.816115z" fill="#d81e06" p-id="2334"></path><path d="M426.328833 279.652546c-44.144086 0-80.058156 35.91407-80.058157 80.058157 0 44.144086 35.91407 80.058156 80.058157 80.058156s80.058156-35.91407 80.058156-80.058156c0-44.144086-35.91407-80.058156-80.058156-80.058157z m0 120.088235c-22.072043 0-40.030078-17.958035-40.030079-40.030078s17.958035-40.030078 40.030079-40.030079 40.030078 17.958035 40.030078 40.030079-17.958035 40.030078-40.030078 40.030078zM764.373493 279.652546c-44.144086 0-80.058156 35.91407-80.058156 80.058157 0 44.144086 35.91407 80.058156 80.058156 80.058156s80.058156-35.91407 80.058156-80.058156c0.002-44.142086-35.91407-80.058156-80.058156-80.058157z m0 120.088235c-22.072043 0-40.030078-17.958035-40.030078-40.030078s17.954035-40.030078 40.030078-40.030079c22.072043 0 40.030078 17.958035 40.030078 40.030079s-17.958035 40.030078-40.030078 40.030078zM732.627431 750.467466c-25.82205-46.360091-74.798146-75.160147-127.81825-75.160147-51.512101 0-100.652197 28.588056-128.24425 74.606146-5.684011 9.480019-2.608005 21.774043 6.874013 27.458053 9.482019 5.684011 21.770043 2.604005 27.458054-6.874013 20.39804-34.024066 56.38211-55.158108 93.908183-55.158108 38.510075 0 74.092145 20.924041 92.852182 54.606107a20.012039 20.012039 0 0 0 27.226053 7.748015c9.658019-5.380011 13.124026-17.568034 7.744015-27.226053z" fill="#d81e06" p-id="2335"></path><path d="M665.7953 46.812091m-20.014039 0a20.014039 20.014039 0 1 0 40.028078 0 20.014039 20.014039 0 1 0-40.028078 0Z" fill="#d81e06" p-id="2336"></path></svg>